<?xml version="1.0" standalone="no"?>
<!DOCTYPE svg PUBLIC "-//W3C//DTD SVG 20010904//EN"
 "http://www.w3.org/TR/2001/REC-SVG-20010904/DTD/svg10.dtd">
<svg version="1.0" xmlns="http://www.w3.org/2000/svg"
 width="1643.000000pt" height="1198.000000pt" viewBox="0 0 1643.000000 1198.000000"
 preserveAspectRatio="xMidYMid meet">

<g transform="translate(0.000000,1198.000000) scale(0.100000,-0.100000)"
fill="#FFB742" stroke="none">
<path d="M12735 11799 c-341 -39 -687 -161 -955 -337 -442 -289 -762 -681
-966 -1182 -159 -393 -365 -688 -637 -916 -110 -93 -201 -154 -347 -234 -640
-350 -1062 -696 -1470 -1205 -494 -617 -1041 -1118 -1714 -1567 -191 -128
-224 -155 -351 -282 -107 -107 -160 -170 -222 -262 -79 -119 -172 -274 -241
-404 -207 -388 -344 -601 -493 -765 l-61 -67 7 -58 c10 -85 -10 -171 -57 -241
-40 -60 -97 -112 -244 -224 -114 -87 -169 -141 -329 -320 -236 -266 -273 -296
-580 -480 -530 -318 -909 -568 -1800 -1183 -633 -437 -957 -655 -1270 -854
-250 -159 -308 -203 -421 -320 -178 -182 -222 -316 -150 -455 72 -140 189
-187 374 -149 183 37 316 84 512 179 173 85 287 151 815 477 505 311 883 543
930 570 17 9 55 32 85 50 124 73 521 300 605 345 50 27 109 61 133 77 59 40
110 60 135 53 12 -4 43 -17 69 -31 113 -59 259 -78 394 -50 115 23 462 145
649 228 255 113 380 148 530 148 70 0 207 -28 252 -52 36 -18 333 42 529 108
107 35 277 105 366 150 114 57 188 82 227 76 28 -4 59 -30 165 -137 126 -126
136 -134 246 -188 199 -98 396 -135 770 -144 366 -9 559 8 985 88 236 44 317
48 368 14 32 -20 73 -103 82 -164 l7 -44 -98 7 c-55 4 -146 11 -204 16 -490
43 -806 -48 -952 -274 -51 -80 -65 -126 -48 -166 20 -47 39 -53 123 -36 39 8
139 22 220 30 193 21 310 51 422 110 17 9 38 16 48 16 10 0 49 -29 86 -64 78
-73 125 -92 206 -82 312 36 368 38 1140 31 775 -6 929 -2 1165 31 138 19 338
69 475 118 132 48 182 48 295 0 120 -50 135 -52 170 -19 37 36 55 108 41 161
-22 78 -72 127 -170 166 -82 32 -250 30 -491 -6 -244 -37 -536 -46 -720 -22
-249 33 -448 99 -638 213 -108 65 -322 226 -322 242 0 11 121 58 400 156 1021
358 1815 841 2524 1535 478 469 841 948 1198 1585 419 747 608 1338 608 1904
0 225 -19 357 -114 771 -96 420 -107 627 -45 872 26 103 24 122 -15 204 -92
193 -102 307 -38 443 38 82 159 197 337 320 83 57 172 123 199 145 27 23 97
75 155 116 130 93 161 138 142 208 -16 56 -67 106 -124 121 -25 6 -90 13 -144
16 -318 18 -581 81 -823 196 -141 67 -223 120 -390 249 -160 124 -266 191
-413 260 -183 86 -404 147 -636 176 -122 15 -380 17 -496 3z m1773 -833 c24
-36 32 -59 32 -93 0 -94 -54 -144 -267 -249 -83 -41 -169 -89 -190 -106 l-38
-31 -208 7 c-193 5 -209 7 -230 27 -12 11 -41 34 -65 51 -172 119 -311 111
-460 -29 -71 -67 -92 -110 -92 -188 0 -41 -4 -55 -14 -55 -8 0 -33 -23 -57
-51 -53 -63 -144 -125 -324 -219 -77 -40 -167 -88 -201 -105 -125 -67 -323
-154 -440 -193 -270 -90 -483 -102 -749 -40 -150 34 -224 79 -284 172 -62 95
-62 92 23 264 42 84 83 155 91 158 8 4 52 -3 98 -15 199 -51 372 -19 877 159
544 192 800 271 1044 322 135 28 169 32 321 32 l170 0 140 -43 c168 -51 262
-64 365 -50 96 13 188 61 265 136 63 62 138 170 129 185 -4 6 2 8 12 6 11 -2
34 -25 52 -52z m591 -131 c46 -14 99 -34 118 -45 19 -11 40 -20 48 -20 7 0 15
-6 18 -14 3 -8 16 -16 29 -18 16 -2 -11 -17 -89 -50 -198 -84 -349 -119 -526
-122 l-102 -1 3 30 c9 85 119 220 208 255 63 26 173 20 293 -15z m-1052 -562
c10 -15 47 -57 83 -93 92 -94 163 -124 412 -175 162 -34 224 -124 275 -400 20
-110 22 -336 4 -420 -7 -33 -31 -113 -52 -179 -53 -161 -52 -199 7 -341 117
-282 164 -432 201 -640 26 -152 24 -529 -5 -685 -78 -426 -412 -1204 -760
-1770 -273 -444 -538 -778 -926 -1166 -395 -394 -700 -637 -1144 -911 -506
-312 -1081 -572 -1769 -802 -833 -277 -1690 -415 -2323 -372 -383 26 -568 103
-811 339 -116 111 -142 132 -168 132 -17 0 -134 -37 -259 -81 -468 -167 -707
-239 -862 -259 -91 -12 -127 -7 -288 40 -92 27 -122 21 -327 -61 -479 -194
-883 -315 -1025 -307 -72 4 -120 30 -146 79 -23 45 -3 53 271 100 280 48 358
77 810 299 267 131 376 190 1075 584 431 243 533 306 557 342 45 70 252 133
803 244 298 60 496 107 670 156 826 236 1434 495 1955 836 110 72 225 125 430
200 290 107 388 149 670 288 478 237 825 469 1125 753 80 76 220 228 220 239
0 3 41 64 92 135 209 290 334 538 401 793 26 101 30 132 30 250 0 107 -4 151
-22 214 -43 159 -137 315 -273 453 -50 52 -68 63 -102 67 -22 3 -111 13 -196
22 -505 53 -949 204 -1500 512 -303 169 -509 307 -549 367 -44 65 -23 169 40
203 34 18 125 10 349 -32 415 -78 628 -141 970 -290 100 -43 108 -45 145 -33
55 16 92 58 154 173 187 342 415 600 676 763 106 67 350 170 427 181 113 16
178 60 253 168 l46 69 157 17 c86 9 158 19 161 22 10 9 21 3 38 -23z m-3807
-1293 c53 -27 118 -102 126 -145 10 -58 -3 -152 -35 -246 -42 -124 -72 -161
-188 -228 -252 -145 -381 -242 -635 -474 -223 -204 -560 -613 -783 -950 -43
-66 -86 -121 -94 -124 -60 -19 -131 -66 -232 -150 -63 -54 -126 -103 -140
-110 -364 -178 -561 -267 -687 -308 -249 -83 -400 -86 -481 -12 -28 26 -71
113 -71 145 0 52 85 141 268 280 300 229 656 566 1052 997 263 287 340 364
379 381 19 8 73 37 120 65 47 28 118 69 156 92 39 22 77 46 85 53 8 6 31 21
50 32 123 69 358 224 429 281 24 20 63 50 87 66 54 38 209 169 298 252 149
139 195 155 296 103z m869 -866 c63 -52 33 -116 -118 -256 -129 -119 -403
-285 -766 -463 -200 -98 -432 -195 -467 -195 -19 0 -33 72 -18 99 12 24 151
148 265 238 244 191 470 340 670 440 108 55 370 162 397 163 3 0 20 -12 37
-26z m1851 -1069 c21 -11 30 -23 30 -40 0 -39 -110 -244 -198 -368 -232 -326
-463 -535 -955 -866 -422 -282 -806 -473 -1272 -630 l-150 -51 -22 26 c-13 14
-23 34 -23 46 0 19 53 78 70 78 16 0 403 181 600 281 461 232 819 460 1105
704 233 197 507 496 671 731 47 67 82 104 100 104 8 0 28 -7 44 -15z m-4013
-220 c-15 -95 -99 -200 -213 -270 -68 -41 -124 -58 -124 -37 0 27 306 342 332
342 6 0 8 -14 5 -35z m293 -321 c0 -43 -96 -140 -180 -184 -14 -7 -110 -69
-215 -139 -380 -251 -488 -313 -548 -313 -45 0 -74 16 -97 55 -28 45 -25 94 8
144 34 51 89 113 101 113 14 0 21 -28 13 -53 -5 -12 -8 -47 -8 -77 1 -49 3
-55 21 -52 57 10 216 102 491 282 205 135 376 237 402 239 6 1 12 -6 12 -15z
m1310 -264 c0 -5 -17 -21 -37 -35 -21 -13 -56 -37 -78 -53 -22 -15 -77 -53
-123 -84 -81 -56 -129 -92 -201 -154 -172 -146 -505 -356 -739 -466 -96 -45
-144 -48 -70 -5 26 16 138 96 250 179 276 204 469 330 753 492 131 75 240 136
242 136 2 0 3 -4 3 -10z m-880 -89 c0 -31 -128 -155 -240 -231 -64 -43 -81
-62 -69 -77 9 -10 7 -13 -6 -13 -16 0 -216 -120 -327 -197 -50 -35 -123 -68
-113 -53 11 17 -68 6 -157 -21 -70 -22 -87 12 -25 49 18 11 127 77 242 147
447 272 672 404 688 405 4 0 7 -4 7 -9z m-1553 -66 c-3 -30 -21 -89 -42 -134
-37 -82 -53 -160 -41 -204 3 -13 26 -44 50 -67 25 -24 42 -48 39 -53 -9 -14
-141 -1 -169 17 -44 30 -44 121 2 244 45 120 127 252 157 252 6 0 7 -23 4 -55z
m2633 -185 c0 -36 -190 -198 -410 -350 -171 -118 -215 -154 -318 -258 -176
-177 -250 -311 -212 -383 9 -16 7 -19 -12 -19 -27 0 -97 39 -111 61 -32 51 43
178 193 330 86 86 177 161 364 300 137 101 283 211 325 245 42 33 85 66 96 72
25 14 85 16 85 2z m-360 -65 c0 -2 -10 -9 -22 -15 -22 -11 -22 -10 -4 4 21 17
26 19 26 11z m-1900 -295 c-32 -62 -42 -93 -42 -128 0 -71 -33 -82 -87 -30
-31 30 -33 36 -29 85 3 28 11 60 19 69 14 18 171 96 178 89 2 -2 -15 -41 -39
-85z m3176 15 c-11 -8 -25 -15 -30 -15 -6 1 0 7 14 15 32 19 40 18 16 0z
m-5616 -47 c7 -29 21 -63 32 -75 30 -32 105 -45 222 -37 87 6 103 4 115 -10
19 -23 7 -42 -36 -56 -21 -7 -94 -39 -163 -72 -68 -33 -142 -63 -163 -66 -52
-7 -98 18 -126 69 -28 49 -22 95 21 177 27 53 74 122 83 122 1 0 9 -24 15 -52z
m5560 23 c0 -12 -243 -140 -458 -241 -171 -80 -399 -175 -512 -214 -25 -8 -70
-25 -100 -36 -30 -12 -50 -17 -45 -12 6 6 53 26 105 45 136 51 246 95 318 128
35 16 66 29 69 29 18 0 500 238 508 251 4 5 10 7 14 4 5 -2 26 9 47 25 41 31
54 36 54 21z m-3631 -67 c105 -28 195 -70 227 -105 12 -13 40 -52 63 -87 23
-34 54 -70 68 -80 44 -28 147 -21 285 22 65 20 127 36 137 36 22 0 71 -58 71
-83 0 -11 -20 -22 -62 -36 -35 -11 -155 -52 -268 -91 -113 -39 -254 -89 -315
-110 -60 -21 -209 -74 -330 -118 -433 -157 -802 -266 -1195 -352 -74 -16 -162
-36 -195 -44 -100 -25 -157 -16 -194 28 -12 14 -7 19 35 37 132 55 213 101
267 151 59 56 70 78 38 78 -33 0 -283 -86 -504 -174 -120 -47 -222 -86 -228
-86 -5 0 -64 -20 -130 -45 -66 -25 -136 -45 -155 -45 -46 0 -98 22 -118 51
-15 22 -15 24 9 37 14 7 52 22 83 32 208 68 445 156 617 230 50 22 167 71 260
111 356 150 861 391 1254 599 95 51 159 79 170 75 9 -3 58 -18 110 -31z
m-2074 -432 c-5 -4 -12 -14 -14 -22 -19 -71 -23 -101 -17 -107 24 -24 213 16
379 81 62 24 131 47 153 51 l39 6 -30 -25 c-16 -14 -34 -26 -38 -26 -5 0 -21
-8 -35 -19 -61 -42 -308 -163 -390 -191 -153 -51 -278 -72 -311 -51 -18 11 -4
49 46 128 56 88 164 183 207 183 12 0 17 -4 11 -8z m1065 -671 c-45 -24 -414
-162 -505 -189 -184 -55 -453 -112 -524 -112 -105 0 -154 34 -166 115 -8 53 1
85 24 85 10 0 42 -18 71 -40 50 -37 58 -40 120 -40 47 0 126 15 266 50 274 69
646 145 719 148 l30 1 -35 -18z m-1450 -163 c0 -13 -13 -51 -30 -86 -16 -35
-37 -88 -46 -119 -15 -51 -15 -56 2 -74 29 -32 89 -42 219 -36 139 7 231 25
518 101 115 31 218 56 230 56 54 -1 -121 -109 -264 -163 -85 -32 -149 -65
-149 -77 0 -5 20 -12 45 -16 25 -3 45 -10 45 -14 0 -17 -285 -151 -425 -201
-248 -87 -588 -125 -683 -75 -99 52 -133 171 -72 255 58 80 124 141 153 141
35 0 34 -11 -4 -66 -17 -25 -39 -64 -50 -88 -23 -52 -17 -76 30 -120 47 -45
102 -45 327 -2 220 43 295 62 347 88 48 24 39 38 -22 38 -78 0 -257 37 -303
62 -76 41 -97 128 -62 262 28 107 59 140 144 149 19 2 38 5 43 5 4 1 7 -8 7
-20z m4731 -1758 c20 -11 76 -51 124 -90 129 -106 266 -195 400 -260 340 -166
664 -221 1100 -186 116 9 221 19 235 23 48 11 6 -14 -90 -54 -94 -40 -218 -78
-335 -105 -46 -10 -140 -12 -395 -9 -511 6 -853 6 -1330 1 -510 -5 -515 -5
-606 82 -30 28 -54 54 -54 58 0 4 208 9 463 12 434 4 464 5 501 23 21 11 45
32 54 46 26 45 10 72 -83 139 -104 75 -235 200 -235 224 0 56 113 132 180 120
19 -3 51 -14 71 -24z m-343 -203 c59 -65 109 -123 110 -128 2 -5 -27 -9 -63
-9 -64 0 -70 2 -99 33 -22 24 -40 61 -60 128 -45 147 -43 138 -17 114 13 -11
71 -73 129 -138z"/>
<path d="M8000 5143 c-8 -3 -76 -29 -150 -58 -74 -29 -164 -62 -200 -75 -36
-12 -81 -30 -100 -40 -69 -34 -106 -48 -198 -71 -92 -24 -117 -39 -64 -39 53
0 186 40 352 106 230 92 431 188 383 183 -5 0 -15 -3 -23 -6z"/>
<path d="M7240 4940 c-11 -7 -8 -9 15 -9 17 1 41 5 55 9 22 7 20 8 -15 9 -22
0 -47 -4 -55 -9z"/>
<path d="M6840 4781 c0 -13 27 -21 45 -15 25 10 17 24 -15 24 -16 0 -30 -4
-30 -9z"/>
<path d="M6825 4710 c3 -5 14 -10 23 -10 15 0 15 2 2 10 -20 13 -33 13 -25 0z"/>
</g>
</svg>
